<svg width="20" height="20" viewBox="0 0 20 20" fill="none" xmlns="http://www.w3.org/2000/svg">
<g clip-path="url(#clip0_101_4)">
<circle cx="9.97031" cy="9.97031" r="9.97031" fill="white"/>
<path d="M14.703 7.1569H14.1628L13.0421 3.64701C12.9494 3.35764 12.7809 3.10759 12.5594 2.93057C12.3379 2.75355 12.074 2.65808 11.8034 2.65704H10.7485C10.3862 2.65704 10.0896 2.99453 10.0896 3.4074C10.0896 3.81969 10.3862 4.15718 10.7485 4.15718H11.8034L12.7653 7.1569H9.59525L9.35798 6.40711H9.4173C9.77963 6.40711 10.0762 6.06962 10.0762 5.65732C10.0762 5.24446 9.77963 4.90697 9.4173 4.90697H7.45337C7.09054 4.90697 6.79395 5.24446 6.79395 5.65732C6.79395 6.06962 7.09054 6.40711 7.45337 6.40711H7.94769L9.14691 10.1572H8.70548C8.41532 8.48436 7.18298 7.2469 5.64071 7.16478C3.79542 7.05959 2.18048 8.80723 2.18048 10.907C2.18048 13.0067 3.63032 14.657 5.4761 14.657C7.09746 14.657 8.40889 13.3892 8.70548 11.6568H11.4737C11.7638 13.3296 12.9962 14.567 14.5384 14.6492C16.3837 14.747 17.9987 13.0067 17.9987 10.8997C17.9987 8.80723 16.5488 7.1569 14.703 7.1569ZM6.13503 11.6568H7.33474C7.05792 12.5792 6.27986 13.2171 5.34412 13.1496C4.36191 13.0821 3.5448 12.1371 3.49883 11.0122C3.45236 9.69932 4.33571 8.65704 5.4761 8.65704C5.88524 8.65266 6.28515 8.79531 6.61888 9.06467C6.95261 9.33403 7.20312 9.71635 7.33474 10.1572H6.13503C5.77269 10.1572 5.4761 10.4947 5.4761 10.907C5.4761 11.3193 5.77269 11.6568 6.13503 11.6568ZM11.4737 10.1572H10.5508L10.0698 8.65704H12.0668C11.7686 9.09735 11.5655 9.61119 11.4737 10.1572ZM14.624 13.1569C13.6091 13.1119 12.7525 12.1292 12.7258 10.9672C12.7129 10.2472 12.9828 9.6172 13.4178 9.19703L13.8266 10.4722C13.8559 10.5649 13.901 10.6501 13.9593 10.723C14.0176 10.7958 14.0879 10.8548 14.1664 10.8967C14.2448 10.9385 14.3296 10.9622 14.4162 10.9666C14.5027 10.971 14.5891 10.9559 14.6704 10.9222C14.7519 10.8889 14.8268 10.8376 14.8908 10.7712C14.9548 10.7049 15.0067 10.6248 15.0435 10.5356C15.0802 10.4464 15.1011 10.3498 15.1049 10.2513C15.1088 10.1529 15.0955 10.0546 15.0659 9.962L14.6506 8.66436L14.6571 8.65704C14.9213 8.64676 15.1847 8.69754 15.4312 8.80629C15.6777 8.91505 15.9023 9.07954 16.0914 9.28983C16.2805 9.50011 16.4302 9.75183 16.5314 10.0298C16.6326 10.3077 16.6833 10.6061 16.6803 10.907C16.6803 12.1967 15.7708 13.2019 14.624 13.1569Z" fill="url(#paint0_linear_101_4)"/>
</g>
<defs>
<linearGradient id="paint0_linear_101_4" x1="10.0896" y1="2.65704" x2="10.0896" y2="19.1569" gradientUnits="userSpaceOnUse">
<stop stop-color="#FFBF00"/>
<stop offset="1" stop-color="#F2A50C"/>
</linearGradient>
<clipPath id="clip0_101_4">
<rect width="19.9406" height="19.9406" fill="white"/>
</clipPath>
</defs>
</svg>
